<?xml version="1.0" encoding="UTF-8"?>
<svg xmlns="http://www.w3.org/2000/svg" xmlns:xlink="http://www.w3.org/1999/xlink" width="32px" height="32px" viewBox="0 0 32 32" version="1.1">
<g id="surface1">
<path style=" stroke:none;fill-rule:nonzero;fill:rgb(0%,48.235294%,60%);fill-opacity:1;" d="M 14.222656 17.414062 L 13.414062 17.414062 C 10.320312 17.414062 7.273438 18.25 4.609375 19.835938 C 3.433594 20.554688 2.726562 21.84375 2.75 23.222656 L 2.75 25.414062 C 2.742188 25.773438 2.882812 26.117188 3.132812 26.367188 C 3.382812 26.617188 3.726562 26.757812 4.085938 26.75 L 15.195312 26.75 C 14.039062 25.179688 13.417969 23.28125 13.414062 21.335938 C 13.402344 19.984375 13.679688 18.648438 14.222656 17.414062 Z M 14.222656 17.414062 "/>
<path style=" stroke:none;fill-rule:nonzero;fill:rgb(0%,48.235294%,60%);fill-opacity:1;" d="M 18.664062 10.664062 C 18.664062 13.609375 16.28125 16 13.335938 16 C 10.390625 16 8 13.609375 8 10.664062 C 8 7.71875 10.390625 5.335938 13.335938 5.335938 C 16.28125 5.335938 18.664062 7.71875 18.664062 10.664062 Z M 18.664062 10.664062 "/>
<path style=" stroke:none;fill-rule:nonzero;fill:rgb(0%,48.235294%,60%);fill-opacity:1;" d="M 27.664062 21.335938 C 27.695312 21.054688 27.695312 20.777344 27.664062 20.5 L 28.804688 19.527344 C 29 19.285156 29 18.9375 28.804688 18.695312 L 28 17.414062 C 27.878906 17.148438 27.597656 16.992188 27.304688 17.027344 L 25.804688 17.414062 C 25.375 17.054688 24.882812 16.765625 24.359375 16.554688 L 24.085938 15.109375 C 23.980469 14.832031 23.714844 14.640625 23.414062 14.640625 L 21.890625 14.640625 C 21.578125 14.644531 21.3125 14.863281 21.25 15.164062 L 20.945312 16.609375 C 20.421875 16.828125 19.9375 17.117188 19.5 17.472656 L 18.085938 16.972656 C 17.792969 16.902344 17.492188 17.023438 17.335938 17.277344 L 16.554688 18.609375 C 16.351562 18.851562 16.351562 19.203125 16.554688 19.445312 L 17.664062 20.414062 C 17.640625 20.703125 17.640625 20.992188 17.664062 21.277344 C 17.640625 21.554688 17.640625 21.835938 17.664062 22.109375 L 16.554688 23.085938 C 16.351562 23.320312 16.351562 23.679688 16.554688 23.914062 L 17.335938 25.277344 C 17.496094 25.539062 17.8125 25.664062 18.109375 25.585938 L 19.527344 25.085938 C 19.960938 25.445312 20.445312 25.738281 20.972656 25.945312 L 21.277344 27.390625 C 21.34375 27.691406 21.609375 27.910156 21.914062 27.914062 L 23.472656 27.914062 C 23.78125 27.910156 24.046875 27.691406 24.109375 27.390625 L 24.414062 25.945312 C 24.945312 25.738281 25.429688 25.445312 25.859375 25.085938 L 27.304688 25.75 C 27.585938 25.816406 27.878906 25.691406 28.027344 25.445312 L 28.804688 24.109375 C 29 23.867188 29 23.523438 28.804688 23.277344 L 27.664062 22.304688 C 27.703125 21.984375 27.703125 21.65625 27.664062 21.335938 Z M 22.664062 24.109375 C 21.132812 24.109375 19.890625 22.867188 19.890625 21.335938 C 19.890625 19.796875 21.132812 18.554688 22.664062 18.554688 C 24.203125 18.554688 25.445312 19.796875 25.445312 21.335938 C 25.382812 22.824219 24.15625 24 22.664062 24 Z M 22.664062 24.109375 "/>
</g>
</svg>
